<svg width="24" height="24" viewBox="0 0 24 24" fill="none" xmlns="http://www.w3.org/2000/svg">
    <path d="M18 3H6C4.34315 3 3 4.34315 3 6V18C3 19.6569 4.34315 21 6 21H18C19.6569 21 21 19.6569 21 18V6C21 4.34315 19.6569 3 18 3Z"
          stroke="#006750" stroke-width="1.5" stroke-linecap="round" stroke-linejoin="round"/>
    <path d="M10.2492 17.4512C10.2428 17.4512 10.2365 17.4525 10.2306 17.4549C10.2247 17.4574 10.2194 17.461 10.2149 17.4656C10.2104 17.4702 10.2069 17.4756 10.2045 17.4815C10.2022 17.4874 10.201 17.4938 10.2012 17.5002C10.2012 17.5099 10.2041 17.5194 10.2095 17.5275C10.2149 17.5356 10.2227 17.5419 10.2317 17.5455C10.2407 17.5492 10.2506 17.5501 10.2601 17.5482C10.2696 17.5462 10.2784 17.5414 10.2852 17.5345C10.292 17.5275 10.2966 17.5187 10.2984 17.5091C10.3001 17.4995 10.299 17.4897 10.2952 17.4807C10.2913 17.4718 10.2849 17.4642 10.2767 17.4589C10.2685 17.4537 10.2589 17.451 10.2492 17.4512"
          stroke="#006750" stroke-width="1.5" stroke-linecap="round" stroke-linejoin="round"/>
    <path d="M6.74921 17.4512C6.74273 17.451 6.7363 17.4522 6.73029 17.4546C6.72429 17.457 6.71883 17.4607 6.71425 17.4652C6.70968 17.4698 6.70607 17.4753 6.70366 17.4813C6.70124 17.4873 6.70007 17.4937 6.70021 17.5002C6.70021 17.5099 6.70311 17.5194 6.70854 17.5275C6.71397 17.5356 6.72168 17.5419 6.73069 17.5455C6.73971 17.5492 6.74961 17.5501 6.75914 17.5482C6.76867 17.5462 6.7774 17.5414 6.78421 17.5345C6.79102 17.5275 6.79561 17.5187 6.79738 17.5091C6.79916 17.4995 6.79805 17.4897 6.79418 17.4807C6.79032 17.4718 6.78388 17.4642 6.7757 17.4589C6.76751 17.4537 6.75794 17.451 6.74821 17.4512"
          stroke="#006750" stroke-width="1.5" stroke-linecap="round" stroke-linejoin="round"/>
    <path d="M17.2492 14.4512C17.2428 14.4512 17.2365 14.4525 17.2306 14.4549C17.2247 14.4574 17.2194 14.461 17.2149 14.4656C17.2104 14.4702 17.2069 14.4756 17.2045 14.4815C17.2022 14.4874 17.201 14.4938 17.2012 14.5002C17.2012 14.5099 17.2041 14.5194 17.2095 14.5275C17.2149 14.5356 17.2227 14.5419 17.2317 14.5455C17.2407 14.5492 17.2506 14.5501 17.2601 14.5482C17.2696 14.5462 17.2784 14.5414 17.2852 14.5345C17.292 14.5275 17.2966 14.5187 17.2984 14.5091C17.3001 14.4995 17.299 14.4897 17.2952 14.4807C17.2913 14.4718 17.2849 14.4642 17.2767 14.4589C17.2685 14.4537 17.2589 14.451 17.2492 14.4512"
          stroke="#006750" stroke-width="1.5" stroke-linecap="round" stroke-linejoin="round"/>
    <path d="M13.7492 14.4502C13.7395 14.4502 13.73 14.4531 13.722 14.4585C13.7139 14.4638 13.7076 14.4715 13.7039 14.4804C13.7002 14.4894 13.6992 14.4992 13.7011 14.5088C13.703 14.5183 13.7077 14.527 13.7145 14.5338C13.7214 14.5407 13.7301 14.5454 13.7396 14.5473C13.7491 14.5491 13.759 14.5482 13.7679 14.5445C13.7769 14.5408 13.7846 14.5345 13.7899 14.5264C13.7953 14.5184 13.7982 14.5089 13.7982 14.4992C13.7982 14.4862 13.793 14.4737 13.7838 14.4645C13.7747 14.4554 13.7622 14.4502 13.7492 14.4502"
          stroke="#006750" stroke-width="1.5" stroke-linecap="round" stroke-linejoin="round"/>
    <path d="M13.7502 14.4521C13.7405 14.4521 13.731 14.455 13.7229 14.4604C13.7149 14.4658 13.7086 14.4734 13.7049 14.4824C13.7012 14.4914 13.7002 14.5012 13.7021 14.5107C13.704 14.5202 13.7087 14.5289 13.7155 14.5358C13.7224 14.5426 13.7311 14.5473 13.7406 14.5492C13.7501 14.5511 13.76 14.5501 13.7689 14.5464C13.7779 14.5427 13.7855 14.5364 13.7909 14.5284C13.7963 14.5203 13.7992 14.5108 13.7992 14.5011C13.7992 14.4882 13.794 14.4757 13.7848 14.4665C13.7756 14.4573 13.7632 14.4521 13.7502 14.4521"
          stroke="#006750" stroke-width="1.5" stroke-linecap="round" stroke-linejoin="round"/>
    <path d="M10.2492 14.4502C10.2428 14.4502 10.2365 14.4515 10.2306 14.454C10.2247 14.4564 10.2194 14.4601 10.2149 14.4646C10.2104 14.4692 10.2069 14.4746 10.2045 14.4805C10.2022 14.4865 10.201 14.4928 10.2012 14.4992C10.2012 14.5089 10.2041 14.5185 10.2095 14.5265C10.2149 14.5346 10.2227 14.5409 10.2317 14.5446C10.2407 14.5482 10.2506 14.5492 10.2601 14.5472C10.2696 14.5452 10.2784 14.5404 10.2852 14.5335C10.292 14.5265 10.2966 14.5177 10.2984 14.5081C10.3001 14.4986 10.299 14.4887 10.2952 14.4798C10.2913 14.4708 10.2849 14.4632 10.2767 14.458C10.2685 14.4527 10.2589 14.45 10.2492 14.4502"
          stroke="#006750" stroke-width="1.5" stroke-linecap="round" stroke-linejoin="round"/>
    <path d="M6.74924 14.4502C6.74268 14.4501 6.73616 14.4513 6.73008 14.4537C6.72401 14.4562 6.71851 14.4599 6.71391 14.4646C6.70932 14.4693 6.70574 14.4749 6.70339 14.481C6.70103 14.4871 6.69996 14.4937 6.70024 14.5002C6.70024 14.5099 6.70314 14.5195 6.70857 14.5275C6.714 14.5356 6.72171 14.5419 6.73072 14.5456C6.73974 14.5492 6.74964 14.5502 6.75917 14.5482C6.7687 14.5462 6.77743 14.5414 6.78424 14.5345C6.79105 14.5275 6.79564 14.5187 6.79741 14.5091C6.79919 14.4996 6.79808 14.4897 6.79421 14.4808C6.79035 14.4718 6.78392 14.4642 6.77573 14.459C6.76754 14.4537 6.75797 14.451 6.74824 14.4512"
          stroke="#006750" stroke-width="1.5" stroke-linecap="round" stroke-linejoin="round"/>
    <path d="M17.2492 11.4512C17.2428 11.4512 17.2365 11.4525 17.2306 11.4549C17.2247 11.4574 17.2194 11.461 17.2149 11.4656C17.2104 11.4702 17.2069 11.4756 17.2045 11.4815C17.2022 11.4874 17.201 11.4938 17.2012 11.5002C17.2012 11.5099 17.2041 11.5194 17.2095 11.5275C17.2149 11.5356 17.2227 11.5419 17.2317 11.5455C17.2407 11.5492 17.2506 11.5501 17.2601 11.5482C17.2696 11.5462 17.2784 11.5414 17.2852 11.5345C17.292 11.5275 17.2966 11.5187 17.2984 11.5091C17.3001 11.4995 17.299 11.4897 17.2952 11.4807C17.2913 11.4718 17.2849 11.4642 17.2767 11.4589C17.2685 11.4537 17.2589 11.451 17.2492 11.4512"
          stroke="#006750" stroke-width="1.5" stroke-linecap="round" stroke-linejoin="round"/>
    <path d="M13.7492 11.4502C13.7395 11.4502 13.73 11.4531 13.722 11.4585C13.7139 11.4638 13.7076 11.4715 13.7039 11.4804C13.7002 11.4894 13.6992 11.4992 13.7011 11.5088C13.703 11.5183 13.7077 11.527 13.7145 11.5338C13.7214 11.5407 13.7301 11.5454 13.7396 11.5473C13.7491 11.5491 13.759 11.5482 13.7679 11.5445C13.7769 11.5408 13.7846 11.5345 13.7899 11.5264C13.7953 11.5184 13.7982 11.5089 13.7982 11.4992C13.7982 11.4862 13.793 11.4737 13.7838 11.4645C13.7747 11.4554 13.7622 11.4502 13.7492 11.4502"
          stroke="#006750" stroke-width="1.5" stroke-linecap="round" stroke-linejoin="round"/>
    <path d="M13.7502 11.4512C13.7405 11.4512 13.731 11.454 13.7229 11.4594C13.7149 11.4648 13.7086 11.4725 13.7049 11.4814C13.7012 11.4904 13.7002 11.5002 13.7021 11.5097C13.704 11.5192 13.7087 11.528 13.7155 11.5348C13.7224 11.5417 13.7311 11.5463 13.7406 11.5482C13.7501 11.5501 13.76 11.5492 13.7689 11.5454C13.7779 11.5417 13.7855 11.5355 13.7909 11.5274C13.7963 11.5193 13.7992 11.5099 13.7992 11.5002C13.7992 11.4872 13.794 11.4747 13.7848 11.4655C13.7756 11.4563 13.7632 11.4512 13.7502 11.4512"
          stroke="#006750" stroke-width="1.5" stroke-linecap="round" stroke-linejoin="round"/>
    <path d="M21 8H3" stroke="#006750" stroke-width="1.5" stroke-linecap="round" stroke-linejoin="round"/>
</svg>
